PathFileType	4	(X/Y/Z)	 s10c0101.trc
DataRate	CameraRate	NumFrames	NumMarkers	Units	OrigDataRate	OrigDataStartFrame	OrigNumFrames
200	200	7	49	mm	200	251	2000
Frame#	Time	racr			lacr			c7			jug			rlel			rdr			llel			ldr			s2			lic			ric			lasi			rasi			rpsi			lpsi			rgt			lgt			rth1			rth2			rth3			rth4			rlfc			rmfc			rsh1			rsh2			rsh3			rsh4			rlmal			rmmal			rcal			rtoe			rmt5			lth1			lth2			lth4			lth3			llfc			lmfc			llmal			lcal			lmt5			lsh1			lsh2			lsh3			lsh4			ltoe			SBIKE			LBIKE			RBIKE			
		X1	Y1	Z1	X2	Y2	Z2	X3	Y3	Z3	X4	Y4	Z4	X5	Y5	Z5	X6	Y6	Z6	X7	Y7	Z7	X8	Y8	Z8	X9	Y9	Z9	X10	Y10	Z10	X11	Y11	Z11	X12	Y12	Z12	X13	Y13	Z13	X14	Y14	Z14	X15	Y15	Z15	X16	Y16	Z16	X17	Y17	Z17	X18	Y18	Z18	X19	Y19	Z19	X20	Y20	Z20	X21	Y21	Z21	X22	Y22	Z22	X23	Y23	Z23	X24	Y24	Z24	X25	Y25	Z25	X26	Y26	Z26	X27	Y27	Z27	X28	Y28	Z28	X29	Y29	Z29	X30	Y30	Z30	X31	Y31	Z31	X32	Y32	Z32	X33	Y33	Z33	X34	Y34	Z34	X35	Y35	Z35	X36	Y36	Z36	X37	Y37	Z37	X38	Y38	Z38	X39	Y39	Z39	X40	Y40	Z40	X41	Y41	Z41	X42	Y42	Z42	X43	Y43	Z43	X44	Y44	Z44	X45	Y45	Z45	X46	Y46	Z46	X47	Y47	Z47	X48	Y48	Z48	X49	Y49	Z49	
251	1.2550	400.345516	1286.801883	-20.263950	421.318877	1291.674120	-368.808295	400.508804	1354.486313	-196.316782	414.592776	1211.248401	-190.955821	489.525422	1046.447712	47.074281	642.642862	877.060398	-5.370683	505.468372	1039.197461	-442.557357	660.414510	883.565456	-368.441714	-97.763802	1112.356238	-222.571215	81.058304	1104.416083	-366.693086	80.370896	1121.513180	-70.667955	93.815811	1013.291521	-333.923685	64.334226	1039.885890	-76.933895	-52.369075	1162.324843	-166.311394	-37.498740	1161.713758	-275.003805	-50.091019	1031.438944	-19.537940	-31.518160	985.891180	-411.150905	57.648722	934.933170	0.259134	144.951777	922.570828	-9.231324	211.791629	869.086434	-10.621718	158.125999	957.029145	-17.130497	313.117246	821.607630	-25.499031	309.941277	811.995606	-143.538287	257.687350	719.494231	-3.600980	257.907042	631.111563	-17.621859	214.606880	556.814889	-26.050145	288.437314	627.337547	-41.023213	188.841829	455.978258	-46.991609	211.182961	479.352433	-125.960352	139.561958	423.556168	-94.341138	380.394192	444.055914	-80.698144	302.027210	403.541540	-21.148406	35.291284	871.818353	-425.173739	106.675216	823.820726	-412.113605	132.808710	847.850222	-403.228904	145.247523	744.104506	-405.853387	211.575977	656.604704	-386.254426	211.059258	652.483186	-268.413850	-23.483970	364.634683	-379.954159	-85.179027	363.249044	-338.771308	39.679192	236.165191	-397.453953	124.037459	571.413096	-415.686621	100.199425	487.855558	-400.740973	34.636984	427.367171	-396.813454	124.396509	477.001317	-373.518522	122.439272	219.455283	-337.023785	-205.479962	834.594624	-224.771969	-78.263709	81.650042	-423.507961	-102.713798	80.487389	-24.264766	
252	1.2600	400.429837	1286.831494	-20.259973	421.356087	1291.714871	-368.673696	400.461948	1354.407112	-196.270944	414.590945	1211.135823	-190.892877	489.370089	1046.372049	47.143357	642.604633	877.161716	-5.400128	505.508448	1039.220550	-442.539460	660.420785	883.551168	-368.520058	-97.895562	1112.384283	-222.547148	80.914369	1104.546087	-366.722770	80.277976	1121.683056	-70.630611	93.725973	1013.482232	-333.870455	64.225594	1040.047570	-76.961625	-52.454449	1162.414959	-166.395643	-37.680031	1161.933491	-275.093043	-50.055098	1031.529189	-19.525571	-31.600154	985.831926	-411.098211	57.671261	934.894090	0.180218	144.947674	922.406762	-9.367322	211.675213	868.702356	-10.693711	158.224375	956.841814	-17.179657	312.776097	820.963510	-26.161029	309.711564	811.478052	-143.728067	257.603748	719.051261	-3.714611	257.787027	630.719576	-17.683182	214.552576	556.232383	-26.076848	288.330794	626.859856	-41.097508	188.850262	455.352161	-46.993140	211.054786	478.869739	-126.010785	139.458735	422.892073	-94.108588	380.343110	443.945443	-80.660048	302.051163	403.227028	-21.119615	35.298709	871.847054	-425.135611	106.709659	823.908816	-412.127949	132.853988	847.966927	-403.251205	145.352754	744.207098	-405.871962	211.713166	656.730564	-386.356608	211.232647	652.591754	-268.523356	-23.426329	364.904048	-379.910559	-85.103265	363.648568	-338.733386	39.622300	236.420345	-397.460146	124.124954	571.626177	-415.744693	100.251737	488.063159	-400.718113	34.688758	427.598985	-396.777178	124.441590	477.173231	-373.530688	122.366512	219.597495	-337.036920	-205.435878	834.603828	-224.772720	-78.270337	81.637521	-423.490806	-102.720628	80.489755	-24.261756	
253	1.2650	400.559589	1286.883076	-20.236587	421.399447	1291.761843	-368.529810	400.441635	1354.311568	-196.247512	414.569855	1210.980071	-190.837385	489.217063	1046.278437	47.175862	642.337440	877.409115	-4.126780	505.543446	1039.261535	-442.502294	660.407462	883.496560	-368.572865	-98.033825	1112.457740	-222.528774	80.759015	1104.693867	-366.755527	80.178074	1121.866335	-70.610042	93.627544	1013.751677	-333.832296	64.097858	1040.257676	-77.021280	-52.553080	1162.577415	-166.469015	-37.887441	1162.064089	-275.229469	-49.989502	1031.619574	-19.536813	-31.678472	985.732201	-410.997688	57.716496	934.898187	0.101412	144.993111	922.241713	-9.443546	211.581644	868.384540	-10.815306	158.330642	956.655843	-17.233464	312.577464	820.509825	-26.337909	309.512719	811.096801	-143.831287	257.501533	718.567499	-3.843538	257.744190	630.232445	-17.741493	214.504561	555.765228	-26.107974	288.237251	626.270289	-41.200241	188.818755	454.720468	-46.971033	210.105723	477.572510	-125.672180	139.479782	422.299587	-94.105633	380.258038	443.776388	-80.610152	302.059846	402.864618	-21.055575	35.322270	871.894213	-425.073671	106.758102	824.010680	-412.126099	132.889934	848.079078	-403.307950	145.473656	744.322045	-405.909292	211.863828	656.859291	-386.467825	211.431708	652.707796	-268.613034	-23.339613	365.183157	-379.910825	-84.993457	363.999958	-338.685771	39.540911	236.629523	-397.451034	124.226333	571.811243	-415.795062	100.315693	488.283632	-400.724917	34.768385	427.843256	-396.762949	124.522604	477.387811	-373.528575	122.263041	219.654860	-337.017681	-205.420765	834.583592	-224.718398	-78.270202	81.612553	-423.495521	-102.718730	80.492813	-24.274825	
254	1.2700	400.717443	1286.968175	-20.215065	421.449456	1291.821756	-368.357109	400.404368	1354.193479	-196.193145	414.534328	1210.833636	-190.769582	489.027565	1046.208419	47.249375	642.265068	877.506538	-4.078435	505.581887	1039.303449	-442.459009	660.372207	883.413352	-368.624421	-98.213216	1112.510324	-222.508019	80.513104	1104.843259	-366.737406	80.042486	1122.194319	-70.533328	93.536395	1013.969173	-333.783889	63.937142	1040.488983	-77.054504	-52.759301	1162.776036	-166.523810	-38.077575	1162.245890	-275.346481	-49.905220	1031.752537	-19.551711	-31.786620	985.655083	-410.946839	57.798867	934.914434	0.024684	145.004792	922.102191	-9.569043	211.468091	868.081953	-10.977952	158.440575	956.441494	-17.292468	312.360420	820.010379	-26.490409	309.249735	810.692499	-143.980552	257.473788	718.012826	-3.959022	257.780187	629.531515	-17.839035	214.470345	555.183651	-26.113520	288.232311	625.779597	-41.231158	188.798073	454.201634	-46.907599	209.990269	476.925917	-125.742502	139.420862	421.688294	-93.886347	380.205397	443.596029	-80.560826	302.116955	402.498424	-21.000025	35.382778	871.945314	-424.835524	106.812969	824.091827	-412.131082	132.935762	848.196158	-403.336444	145.610507	744.434581	-405.936200	212.028731	657.021030	-386.562223	211.690849	652.839708	-268.727000	-23.206786	365.556373	-379.979964	-84.890751	364.421996	-338.637674	39.473847	236.841719	-397.433421	124.335055	572.015544	-415.837312	100.410313	488.505400	-400.757019	34.850047	428.070236	-396.769060	124.636046	477.632935	-373.580821	122.176827	219.766430	-337.060582	-205.391845	834.613008	-224.742052	-78.233645	81.668532	-423.553090	-102.706245	80.499128	-24.249031	
255	1.2750	400.930936	1287.087226	-20.217738	421.502801	1291.900113	-368.164060	400.523561	1354.181497	-196.286397	414.496362	1210.645831	-190.696301	488.862642	1046.158801	47.301731	642.187005	877.657983	-4.071493	505.604296	1039.364865	-442.403688	660.375561	883.331047	-368.674191	-98.329818	1112.687692	-222.607029	80.289123	1105.072244	-366.769878	79.895385	1122.512869	-70.464084	93.427723	1014.202878	-333.756430	63.788188	1040.769454	-77.136571	-52.982271	1162.971002	-166.621404	-38.290899	1162.415199	-275.446312	-49.847247	1031.882373	-19.580918	-31.883340	985.557706	-410.895036	57.911397	934.979493	-0.043817	145.056240	921.903310	-9.677642	211.333824	867.758963	-11.139479	158.573540	956.200215	-17.347038	312.154161	819.463605	-26.648376	308.966707	810.145341	-144.193754	257.463378	717.277965	-4.029321	257.744820	628.897254	-17.921997	214.469104	554.558870	-26.111344	288.172671	625.096135	-41.388405	188.809771	453.611880	-46.852418	209.874838	476.466953	-125.776223	139.198455	420.892315	-93.619905	380.133862	443.425264	-80.486641	302.158235	402.141571	-20.938318	35.411471	871.981390	-424.784875	106.876433	824.213544	-412.158884	133.006481	848.323620	-403.365774	145.770258	744.593542	-405.953425	212.214912	657.210950	-386.653169	211.945779	653.050940	-268.812871	-23.066209	365.838468	-379.886223	-84.727111	364.867490	-338.584626	39.406977	237.073855	-397.388981	124.464661	572.253887	-415.849410	100.513941	488.698580	-400.742723	34.967991	428.308521	-396.750640	124.786954	477.927274	-373.611619	122.065596	219.856616	-337.032630	-205.365532	834.620868	-224.768974	-78.278274	81.601176	-423.494393	-102.699801	80.469658	-24.250548	
256	1.2800	401.181082	1287.262690	-20.199891	421.585132	1292.015128	-367.919579	400.487757	1354.076295	-196.250173	414.450256	1210.477919	-190.674907	488.598450	1046.094378	47.376826	642.112681	877.939843	-3.992876	505.653883	1039.403310	-442.334075	660.370474	883.211760	-368.769016	-98.582587	1112.690725	-222.617529	80.037120	1105.344444	-366.788930	79.736868	1122.824612	-70.423716	93.296937	1014.516346	-333.695909	63.588471	1041.134865	-77.198066	-53.169557	1163.216008	-166.787738	-38.531329	1162.622006	-275.575106	-49.752541	1032.041656	-19.630242	-31.990148	985.457301	-410.839242	58.007172	935.058228	-0.123195	145.097175	921.757759	-9.808259	211.248800	867.445762	-11.273453	158.740807	955.999097	-17.410454	311.957020	818.921244	-26.803427	308.610756	809.630466	-144.342946	257.427902	716.672008	-4.116648	257.750605	628.416181	-18.033755	214.589492	553.850169	-26.163013	288.131566	624.507163	-41.503214	188.802209	452.895649	-46.818575	209.680102	475.979638	-125.772057	139.400310	420.321685	-93.609458	380.083249	443.244077	-80.375213	302.215814	401.722379	-20.844417	35.443910	872.012890	-424.730645	106.970683	824.376764	-412.135336	133.090199	848.465714	-403.412650	145.968523	744.768063	-405.963819	212.441449	657.400906	-386.720933	212.228653	653.248913	-268.916297	-22.899156	366.171229	-379.803114	-84.526939	365.326346	-338.551946	39.345654	237.349064	-397.347592	124.626520	572.576369	-415.898027	100.695991	488.995237	-400.737610	35.118757	428.605870	-396.746173	124.959980	478.215879	-373.701703	121.966823	219.950441	-337.075317	-205.100783	834.522280	-224.588920	-78.255177	81.590553	-423.482552	-102.699981	80.468700	-24.245469	
257	1.2850	401.460033	1287.471651	-20.193425	421.698164	1292.130492	-367.660024	400.492283	1353.943690	-196.267643	414.371464	1210.288867	-190.628923	488.179411	1045.976304	47.453373	641.980979	878.217168	-4.027150	505.685947	1039.455335	-442.223490	660.401485	883.100506	-368.909098	-98.815678	1112.886683	-222.827111	79.785477	1105.548677	-366.826216	79.525336	1123.177050	-70.399627	93.180953	1014.877256	-333.640107	63.404665	1041.540147	-77.253363	-53.459632	1163.565680	-166.923209	-38.750493	1162.907853	-275.846359	-49.649792	1032.266825	-19.703816	-32.110562	985.360180	-410.774411	58.141780	935.142591	-0.212458	145.136941	921.626478	-9.956128	211.159098	867.081435	-11.428606	158.933183	955.838328	-17.491444	311.731435	818.324898	-27.005788	308.248753	808.977531	-144.487517	257.416594	716.080488	-4.181678	257.797721	627.784024	-18.170108	214.690440	553.195852	-26.186344	288.151762	623.950534	-41.684128	188.827702	452.282499	-46.755922	209.669607	475.279518	-125.820955	139.231806	419.748260	-93.378973	380.032812	443.055076	-80.229638	302.278851	401.239219	-20.737659	35.484642	872.072036	-424.660672	107.075423	824.524210	-412.096765	133.165595	848.616311	-403.449212	146.176032	744.970280	-405.972058	212.672291	657.648941	-386.798337	212.444185	653.528103	-269.033759	-22.720401	366.555803	-379.723049	-84.318220	365.820812	-338.469897	39.286109	237.633842	-397.313633	124.831421	572.860820	-415.954264	100.878476	489.292088	-400.765621	35.302687	428.918041	-396.701796	125.175124	478.532487	-373.724168	121.882192	219.985368	-337.064935	-205.066332	834.521247	-224.555996	-78.216049	81.665987	-423.511927	-102.693346	80.469797	-24.236296	
